<svg height="150" width="366.02997538312053" style="width: 366.03px; height: 150px; position: absolute; top: 50%; left: 50%; transform: translate(-50%, -50%) scale(1); z-index: 0; cursor: pointer;" xmlns="http://www.w3.org/2000/svg"><defs id="SvgjsDefs1001"><linearGradient id="SvgjsLinearGradient1015"><stop id="SvgjsStop1016" stop-color="#7f00ff" offset="0"></stop><stop id="SvgjsStop1017" stop-color="#e100ff" offset="1"></stop></linearGradient></defs><g id="SvgjsG1007" featurekey="symbolGroupContainer" transform="matrix(1.4162410497665405,0,0,1.4162410497665405,0.035527126133531976,0.000011459992788524521)" fill="#01aac1"><path xmlns="http://www.w3.org/2000/svg" d="M101.3 44.9l-.5-2.1a48.1 48.1 0 0 0-1.3-6.1c-.3-1.1-.7-2.2-1.1-3.3l-.6-1.6-.7-1.6A50.9 50.9 0 0 0 78.7 8.5a50.5 50.5 0 0 0-20.6-8 55.7 55.7 0 0 0-7.4-.5A50.7 50.7 0 0 0 4.3 30.2l-.7 1.6-.6 1.6c-.4 1.1-.8 2.2-1.1 3.3a50.1 50.1 0 0 0-1.4 6.7 51.4 51.4 0 0 0-.2 13.1 53 53 0 0 0 1.4 7.3l.3 1.5a50.6 50.6 0 0 0 5 13.9 52.4 52.4 0 0 0 4 6.3 55.9 55.9 0 0 0 4.9 5.6A50.7 50.7 0 0 0 70 102.5l1.6-.7 1.6-.7 3.1-1.6a50.1 50.1 0 0 0 5.7-3.6 51.5 51.5 0 0 0 9.4-9.1 50.6 50.6 0 0 0 6.5-10.6 51.7 51.7 0 0 0 3.5-11.1 51.1 51.1 0 0 0-.1-20.2zm-.8-1.5a52.2 52.2 0 0 1 .2 13.1 50.3 50.3 0 0 1-2.9 12 51.5 51.5 0 0 1-5.3 10.3l-.3.4a45.4 45.4 0 0 0 2.8-5.1c.5-1 .8-2 1.2-3s.7-2 1-3a46.3 46.3 0 0 0 1.2-6.1c.1-1 .3-2 .3-3.1s.1-1 .1-1.5v-1.5c0-1 0-2-.1-3s-.1-2-.3-3a46.5 46.5 0 0 0-2.7-11.1 47.5 47.5 0 0 0-4.9-9.5 47 47 0 0 0-10.2-10.9 46.8 46.8 0 0 0-53.8-7.1l4.1-2.1a51.6 51.6 0 0 1 11-3.6 50.9 50.9 0 0 1 20.1.2 50 50 0 0 1 14.6 5.5 48.2 48.2 0 0 1 8.3 5.7l2 1.8.7.6.6.7 1.8 2a48.1 48.1 0 0 1 5.8 8.2 50.6 50.6 0 0 1 4.1 9.7c.3 1.1.5 2.3.6 3.4zM2.3 65.2A50.7 50.7 0 0 1 3 42.3l-.3 1.4A47 47 0 0 0 5 69.8c.4 1 .8 2 1.3 3s.9 1.9 1.5 2.8a46.3 46.3 0 0 0 3.4 5.3l1.9 2.4 1 1.2 1 1.1 2.2 2.1 2.3 1.9 2.5 1.8a45.4 45.4 0 0 0 4.1 3 47.3 47.3 0 0 0 6.9 3.7A49.3 49.3 0 0 1 23 93 51 51 0 0 1 8.7 78.8a51.6 51.6 0 0 1-5.3-10.3q-.5-1.4-1-2.9zm75.2 28.2a45.9 45.9 0 0 1-12 5.6 47.2 47.2 0 0 1-6.6 1.4 50.5 50.5 0 0 1-6.7.5A45.7 45.7 0 0 1 35 97.5l4.5 1.1a47.1 47.1 0 0 0 18.6-.2 47.4 47.4 0 0 0 13.4-5.1A44.2 44.2 0 0 0 79 88l1.8-1.6.6-.6.6-.6 1.7-1.8a44.3 44.3 0 0 0 5.4-7.5 47.8 47.8 0 0 0 5.2-13.4 47.2 47.2 0 0 0 .3-18.7 46 46 0 0 0-9.1-20.1c-.9-1.1-1.8-2.2-2.8-3.3a46.2 46.2 0 0 1 7.9 9.1 47.1 47.1 0 0 1 4.7 9.5 45.9 45.9 0 0 1 2.6 11c.1 1 .2 1.9.2 2.9s.1 2 0 3v1.5c0 .5-.1 1-.1 1.5s-.2 2-.3 3a45.5 45.5 0 0 1-1.3 6c-.3 1-.6 2-1 3s-.7 2-1.2 2.9a46 46 0 0 1-16.7 19.6zm-9.3-81.6l2.5 1.3a44.9 44.9 0 0 1 5.1 3.3l2.3 1.9 1.1 1 1.1 1 2.1 2.1 1.9 2.2a45.5 45.5 0 0 1 5.9 9.5 48.1 48.1 0 0 1 3.3 10 46.3 46.3 0 0 1 .1 18.3 45.4 45.4 0 0 1-10.1 20.9l-1.6 1.8-.6.6-.6.6-1.8 1.6a44.1 44.1 0 0 1-7.5 5.3 44.6 44.6 0 0 1-13.4 5 46.4 46.4 0 0 1-18.4 0 47 47 0 0 1-9.4-3l-3.2-2a46.2 46.2 0 0 1-16.5-19.5c-.5-.9-.8-1.9-1.2-2.9s-.7-2-.9-3a45 45 0 0 1-1.3-6c-.1-1-.3-2-.3-3s-.1-1-.1-1.5v-4.4c0-1 .1-1.9.2-2.9a45.6 45.6 0 0 1 2.5-10.9 48.1 48.1 0 0 1 4.7-9.4 46.3 46.3 0 0 1 12.9-13 45.4 45.4 0 0 1 22-7.6h6.5a44 44 0 0 1 9.1 1.6zm-3.6-1.3a44.2 44.2 0 0 0-9.1-1.6h-6.6a44.2 44.2 0 0 0-9.1 1.5 47.9 47.9 0 0 0-13.1 5.8 47.2 47.2 0 0 0-13.4 13 46.6 46.6 0 0 0 3.2 56.7l-.8-.8-1-1.1-1-1.1-1.9-2.4a45.4 45.4 0 0 1-3.3-5.2c-.5-.9-1-1.8-1.4-2.8s-.9-1.9-1.2-2.9a45.9 45.9 0 0 1 2.3-38.2 47.5 47.5 0 0 1 3.6-5.7 50.6 50.6 0 0 1 4.4-5.1A45.6 45.6 0 0 1 39.6 8.3 46.2 46.2 0 0 1 65 10.4l1.5.6zM.5 56.5a51.5 51.5 0 0 1 .2-13.1 50 50 0 0 1 1.4-6.6c.3-1.1.7-2.2 1.1-3.3l.6-1.6.7-1.6a50.4 50.4 0 0 1 92.2 0l.7 1.6.6 1.6c.4 1.1.8 2.2 1 3.3s.4 1.5.6 2.3a50.7 50.7 0 0 0-3.9-8.8 48.3 48.3 0 0 0-5.8-8.2l-1.8-2-.6-.7-.7-.6-2-1.8a48.3 48.3 0 0 0-8.2-5.8 50.1 50.1 0 0 0-14.5-5.6 51.2 51.2 0 0 0-20.2-.1A51.8 51.8 0 0 0 30.8 9 50.5 50.5 0 0 0 7.3 30.7c-.6 1-1.1 2-1.6 3.1L5 35.3l-.7 1.6a51 51 0 0 0-2.9 25 54 54 0 0 1-.9-5.4zm100.8 8.6a51.5 51.5 0 0 1-3.6 11 50.4 50.4 0 0 1-6.5 10.6 51.5 51.5 0 0 1-9.4 9.1 50 50 0 0 1-5.7 3.7l-3 1.5-1.6.7-1.6.7A50.5 50.5 0 0 1 2.7 67.2l.5 1.4a51.8 51.8 0 0 0 5.4 10.3 51.1 51.1 0 0 0 14.3 14.2 49.6 49.6 0 0 0 11.2 5.5l4.4 1.6a48.7 48.7 0 0 0 6.7 1.5 51.5 51.5 0 0 0 6.9.5 46.8 46.8 0 0 0 38.2-19.9c.9-1.1 1.7-2.2 2.5-3.4a51.8 51.8 0 0 0 5.3-10.3 50.6 50.6 0 0 0 2.9-24.7l.2 1a51 51 0 0 1 .1 20.2z"></path></g><g id="SvgjsG1008" featurekey="monogramFeature-0" transform="matrix(2.288163185119629,0,0,2.288163185119629,34.135281223939614,-14.254257606845258)" fill="#01aac1"><path d="M12.566 43.229 l0 -24.033 l-4.9 0 l0 24.033 l4.9 0 z M13.733 19.195999999999998 l0 24.033 l3.6166 0 c6.6264 0 12.017 -5.39 12.017 -12.017 s-5.39 -12.017 -12.017 -12.017 l-3.6166 0 z M7.6668 60.029063 l-1.1667 0.000058594 l0 -40.833 l-3.5 0 l0 -1.1667 l14.35 0 c7.2684 0 13.183 5.915 13.183 13.183 s-5.915 13.183 -13.183 13.183 l-2.7884 0 l15.651 15.634 l-1.6567 0 l-15.645 -15.634 l-5.2441 0 l0 15.633 z"></path></g><g id="SvgjsG1009" featurekey="nameLeftFeature-0" transform="matrix(2.861684799194336,0,0,2.861684799194336,162.13831520189996,35.766297215210756)" fill="#ffffff"><path d="M1.26 20 c-0.16 0 -0.26 -0.12 -0.26 -0.26 l0 -11.98 c0 -0.14 0.1 -0.26 0.26 -0.26 l4.88 0 c1.52 0 2.72 0.38 3.56 1.16 c1.24 1.12 1.66 3.24 1.06 4.8 c-0.22 0.56 -0.6 1.08 -1.08 1.46 c-0.28 0.22 -0.58 0.38 -0.88 0.54 c0.86 1.36 2.16 4.12 2.16 4.12 c0.02 0.04 0.06 0.1 0.06 0.16 c0 0.14 -0.12 0.26 -0.26 0.26 l-2.96 0 c-0.08 0 -0.18 -0.06 -0.22 -0.14 l-1.74 -3.82 c-0.62 0.04 -1.1 0.02 -1.74 0.02 l0 3.68 c0 0.14 -0.12 0.26 -0.26 0.26 l-2.58 0 z M4.1 13.280000000000001 c0 0 2.52 0.28 3.4 -0.3 c0.34 -0.22 0.54 -0.76 0.54 -1.16 c-0.02 -0.44 -0.24 -0.9 -0.6 -1.18 c-0.38 -0.32 -1.32 -0.42 -1.8 -0.42 l-1.54 0.04 l0 3.02 z M13.040000000000001 20 l0 -11.98 c0 -0.5 0.1 -0.6 0.26 -0.6 l8.76 0 c0.14 0 0.26 0.1 0.26 0.24 l0 2.26 c0 0.14 -0.12 0.26 -0.26 0.26 l-5.92 0 l0 2.08 l3.74 0 c0.14 0 0.26 0.12 0.26 0.26 l0 2.24 c0 0.14 -0.12 0.26 -0.26 0.26 l-3.74 0 l0 2.14 l5.9 0 c0.14 0 0.26 0.12 0.26 0.26 l0 2.24 c0 0.14 -0.12 0.26 -0.26 0.26 l-8.74 0 c-0.16 0 -0.26 -0.12 -0.26 0.08 z M24.580000000000002 20 c-0.08 0 -0.16 -0.04 -0.2 -0.12 c-0.06 -0.06 -0.06 -0.16 -0.04 -0.24 l4.66 -11.98 c0.04 -0.1 0.14 -0.16 0.24 -0.16 l2.68 0 c0.1 0 0.2 0.06 0.24 0.16 l4.58 11.98 c0.02 0.08 0.02 0.16 -0.04 0.24 c-0.04 0.08 -0.12 0.12 -0.2 0.12 l-2.78 0 c-0.1 0 -0.2 -0.06 -0.24 -0.16 l-0.74 -1.84 l-4.5 0.02 l-0.74 1.82 c-0.04 0.1 -0.14 0.16 -0.24 0.16 l-2.68 0 z M29.060000000000002 15.5 l2.88 0 l-1.44 -4.24 z"></path></g><g id="SvgjsG1010" featurekey="nameRightFeature-0" transform="matrix(2.3805105686187744,0,0,2.3805105686187744,271.0000011351159,45.383111821777725)" fill="url(#SvgjsLinearGradient1015)"><path d="M0.6 4.880000000000001 l7.28 0 c2.48 0.02 4.5 2.04 4.5 4.52 s-2.04 4.52 -4.52 4.52 l-3.36 0 c-0.86 0 -1.56 0.7 -1.56 1.58 l0 3.9 c0 0.32 -0.28 0.6 -0.62 0.6 s-0.6 -0.28 -0.6 -0.6 l0 -3.9 c0 -1.54 1.24 -2.8 2.78 -2.8 l3.36 0 c1.82 0 3.3 -1.48 3.3 -3.3 s-1.48 -3.3 -3.32 -3.3 l-6.62 0 l0 3.3 c0 0.34 -0.28 0.6 -0.62 0.6 c-0.32 0 -0.6 -0.26 -0.6 -0.6 l0 -3.92 c0 -0.32 0.28 -0.6 0.6 -0.6 z M7.86 6.6 c1.54 0 2.8 1.26 2.8 2.8 s-1.26 2.78 -2.8 2.78 l-3.34 0 c-1.82 0 -3.3 1.48 -3.3 3.3 l0 3.92 c0 0.32 -0.28 0.6 -0.62 0.6 c-0.32 0 -0.6 -0.28 -0.6 -0.6 l0 -3.92 c0 -2.5 2.02 -4.52 4.52 -4.52 l3.36 0 c0.86 0 1.56 -0.7 1.56 -1.56 c0 -0.88 -0.7 -1.58 -1.58 -1.58 c-0.32 0 -0.6 -0.26 -0.6 -0.6 s0.28 -0.62 0.6 -0.62 z M17.08 4.880000000000001 l7.42 0 c0.8 0 1.46 0.66 1.46 1.46 s-0.62 1.48 -1.42 1.48 l-7.46 0 c-0.3 0 -0.56 0.24 -0.56 0.56 c0 0.3 0.26 0.56 0.56 0.56 c0.34 0 0.62 0.26 0.62 0.6 s-0.28 0.62 -0.62 0.62 c-0.98 0 -1.76 -0.8 -1.76 -1.78 s0.78 -1.78 1.76 -1.78 l7.42 0 c0.14 0 0.24 -0.12 0.24 -0.26 s-0.1 -0.24 -0.24 -0.24 l-7.42 0 c-1.26 0 -2.28 1.02 -2.28 2.28 s1.02 2.28 2.28 2.28 l5.38 0 c0.98 0 1.78 0.8 1.78 1.8 c0 0.98 -0.8 1.76 -1.78 1.76 l-5.38 0 c-1.26 0 -2.28 1.02 -2.28 2.28 s1.02 2.28 2.28 2.28 l8.26 0 c0.34 0 0.62 0.28 0.62 0.62 s-0.28 0.6 -0.62 0.6 l-8.26 0 c-1.94 0 -3.5 -1.56 -3.5 -3.5 c0 -1.92 1.56 -3.5 3.5 -3.5 l5.38 0 c0.32 0 0.56 -0.24 0.56 -0.54 c0 -0.34 -0.24 -0.58 -0.56 -0.58 l-5.38 0 c-1.92 0 -3.5 -1.58 -3.5 -3.5 c0 -1.94 1.58 -3.5 3.5 -3.5 z M17.08 14.74 l5.38 0 c0.34 0 0.62 0.26 0.62 0.6 s-0.28 0.62 -0.62 0.62 l-5.38 0 c-0.3 0 -0.56 0.24 -0.56 0.54 c0 0.32 0.26 0.56 0.56 0.56 c0.34 0 0.6 0.28 0.6 0.62 c0 0.32 -0.26 0.6 -0.6 0.6 c-0.98 0 -1.78 -0.8 -1.78 -1.78 s0.8 -1.76 1.78 -1.76 z M28.160000000000004 4.880000000000001 l7.28 0 c2.48 0.02 4.48 2.06 4.48 4.54 c0 2.32 -1.78 4.24 -4.04 4.48 l3.62 3.6 c0.54 0.54 0.54 1.54 0 2.08 s-1.48 0.58 -2.04 0.02 c-0.52 -0.54 -2.52 -2.52 -2.52 -2.52 c-0.24 -0.24 -0.24 -0.62 0 -0.86 s0.62 -0.24 0.86 0 l2.48 2.48 c0.1 0.1 0.26 0.12 0.36 0.02 s0.12 -0.24 0 -0.36 l-4.64 -4.62 c-0.12 -0.12 -0.18 -0.26 -0.18 -0.42 c0 -0.34 0.28 -0.62 0.62 -0.62 l0.96 0 c1.82 0 3.32 -1.48 3.32 -3.3 s-1.5 -3.3 -3.32 -3.3 l-6.62 0 l0 3.3 c0 0.34 -0.28 0.6 -0.62 0.6 s-0.6 -0.26 -0.6 -0.6 l0 -3.92 c0 -0.32 0.26 -0.6 0.6 -0.6 z M35.42 6.6 c1.54 0 2.8 1.26 2.8 2.8 s-1.26 2.78 -2.8 2.78 l-3.34 0 c-1.82 0 -3.3 1.48 -3.3 3.3 l0 3.92 c0 0.32 -0.28 0.6 -0.62 0.6 s-0.6 -0.28 -0.6 -0.6 l0 -3.92 c0 -2.5 2.02 -4.52 4.52 -4.52 l3.34 0 c0.88 0 1.58 -0.7 1.58 -1.56 c0 -0.88 -0.7 -1.58 -1.58 -1.58 c-0.34 0 -0.6 -0.26 -0.6 -0.6 s0.26 -0.62 0.6 -0.62 z"></path></g></svg>